# Blender 3.4.1
# www.blender.org
mtllib wings.mtl
o wings
v -0.342330 0.277270 0.000000
v -0.436835 -0.454335 -0.000000
v 0.000000 0.000000 0.000000
v -0.143540 0.172015 0.000000
v -0.230435 -0.427190 -0.000000
v -0.000870 -0.147960 -0.000000
v -0.602520 0.434475 0.000000
v -0.713515 -0.258675 -0.000000
v -1.005725 0.472125 0.000000
v -1.006410 -0.305560 -0.000000
v -1.288375 0.467500 0.000000
v -1.248465 -0.268350 -0.000000
v -1.607620 0.422825 0.000000
v -1.466975 -0.266705 -0.000000
v -2.157145 0.382405 0.000000
v -1.911430 0.044325 0.000000
v 0.342330 0.277270 0.000000
v 0.143540 0.172015 0.000000
v 0.436835 -0.454335 -0.000000
v 0.000870 -0.147960 -0.000000
v 0.230435 -0.427190 -0.000000
v 0.713515 -0.258675 -0.000000
v 0.602520 0.434475 0.000000
v 1.006410 -0.305560 -0.000000
v 1.005725 0.472125 0.000000
v 1.248465 -0.268350 -0.000000
v 1.288375 0.467500 0.000000
v 1.466975 -0.266705 -0.000000
v 1.607620 0.422825 0.000000
v 1.911430 0.044325 0.000000
v 2.157145 0.382405 0.000000
vn -0.0000 -0.0000 1.0000
vt 0.802800 0.384100
vt 0.762300 0.070400
vt 0.949600 0.265200
vt 0.055700 0.768000
vt 0.888100 0.339000
vt 0.850800 0.082100
vt 0.949300 0.201800
vt 0.691300 0.451500
vt 0.643700 0.154300
vt 0.518400 0.467700
vt 0.518100 0.134200
vt 0.397200 0.465700
vt 0.414300 0.150200
vt 0.260300 0.446500
vt 0.320600 0.150900
vt 0.024600 0.429200
vt 0.130000 0.284200
vt 0.202500 0.886900
vt 0.117200 0.841800
vt 0.243000 0.573200
vt 0.056000 0.704600
vt 0.154500 0.584800
vt 0.361600 0.657100
vt 0.314000 0.954300
vt 0.487200 0.637000
vt 0.486900 0.970500
vt 0.591000 0.653000
vt 0.608100 0.968500
vt 0.684700 0.653700
vt 0.745000 0.949300
vt 0.875300 0.787000
vt 0.980700 0.932000
s 1
usemtl Material__27
f 1/1/1 2/2/1 3/3/1 4/5/1
s 0
f 3/3/1 2/2/1 5/6/1 6/7/1
f 2/2/1 1/1/1 7/8/1 8/9/1
f 8/9/1 7/8/1 9/10/1 10/11/1
f 10/11/1 9/10/1 11/12/1 12/13/1
f 12/13/1 11/12/1 13/14/1 14/15/1
f 14/15/1 13/14/1 15/16/1 16/17/1
s 1
f 17/18/1 18/19/1 3/4/1 19/20/1
s 0
f 3/4/1 20/21/1 21/22/1 19/20/1
f 19/20/1 22/23/1 23/24/1 17/18/1
f 22/23/1 24/25/1 25/26/1 23/24/1
f 24/25/1 26/27/1 27/28/1 25/26/1
f 26/27/1 28/29/1 29/30/1 27/28/1
f 28/29/1 30/31/1 31/32/1 29/30/1
